<?xml version="1.0" encoding="UTF-8" standalone="no"?>
<svg width="2414px" height="1960px" viewBox="0 0 2414 1960" version="1.1" xmlns="http://www.w3.org/2000/svg" xmlns:xlink="http://www.w3.org/1999/xlink">
    <!-- Generator: Sketch 39 (31667) - http://www.bohemiancoding.com/sketch -->
    <title>Oskar</title>
    <desc>Created with Sketch.</desc>
    <defs></defs>
    <g id="Page-1" stroke="none" stroke-width="1" fill="none" fill-rule="evenodd">
        <g id="Orkastrate" transform="translate(-945.000000, 0.000000)">
            <g id="Oskar" transform="translate(945.000000, 0.000000)">
                <path d="M353.453392,651.326204 C419.452562,551.773363 613.465259,670.684291 694.829878,501.157597 C722.93611,702.037593 599.938138,852.981799 393.057144,812.119448 C431.980822,1010.94889 759.043851,964.752971 902.178423,913.999084 C1165.8882,820.491661 1194.30259,548.607222 1286.50591,317.882623 C1470.26435,-141.909132 2155.01504,-50.2291464 2313.99324,260.892074 C2585.0457,791.327035 2174.55657,1457.92733 1575.60161,1562.11252 L1574.01831,1562.38876 C1466.89585,1664.34276 1339.70054,1737.89712 1191.76293,1765.85054 C1231.91925,1639.71486 1244.71316,1464.58898 1178.03392,1346.29428 C1183.77205,1423.886 1174.9842,1500.18151 1154.91136,1568.77416 C725.922065,1514.2379 298.813602,1275.92732 291.991597,822.010984 C80.7751243,807.699599 -13.9784749,702.069467 1.83327298,504.57873 C98.5527145,650.773723 266.95633,534.147092 353.453392,651.326204" id="Fill-12" fill="#3F88C5"></path>
                <path d="M2382.46831,454.589816 C2162.8359,437.016668 1933.89497,357.905627 1922.38682,728.216696 C1923.38568,1036.39489 1820.38617,1317.63964 1575.60161,1562.11252 C2103.39308,1470.31566 2484.72398,941.814382 2382.46831,454.589816" id="Fill-13" fill="#7FD4DA"></path>
                <path d="M1623.34502,373.353848 C1679.41934,373.353848 1724.87812,418.816666 1724.87812,474.882872 C1724.87812,530.949077 1679.41934,576.422519 1623.34502,576.422519 C1567.26007,576.422519 1521.80129,530.949077 1521.80129,474.882872 C1521.80129,418.816666 1567.26007,373.353848 1623.34502,373.353848" id="Fill-14" fill="#E0F4FB"></path>
                <path d="M2351.59927,346.739135 C2426.5138,344.784202 2429.00033,438.482868 2382.46831,454.589816 C2363.26681,446.281351 2344.07594,437.962261 2324.87444,429.653795 C2330.55944,417.711704 2345.90364,358.681226 2351.59927,346.739135" id="Fill-15" fill="#3F88C5"></path>
                <path d="M1278.68504,1851.44261 C1649.18787,1851.44261 1949.5367,1875.53928 1949.5367,1905.26701 C1949.5367,1934.99475 1649.18787,1959.09142 1278.68504,1959.09142 C908.182212,1959.09142 607.833386,1934.99475 607.833386,1905.26701 C607.833386,1875.53928 908.182212,1851.44261 1278.68504,1851.44261" id="Fill-16" fill="#E6E6E6"></path>
            </g>
        </g>
    </g>
</svg>